<svg xmlns="http://www.w3.org/2000/svg" viewBox="-46 6 644 489">
  <rect x="-30" y="20" width="610" height="460" style="fill: #03402e; stroke: white; stroke-width: 32;" r="25" rx="50"></rect>
  <path d="M 235 150 L 185 100 H 100 L 50 150 V 200 L 100 250 H 185 L 235 300 V 350 L 185 400 H 100 L 50 350" style="stroke: rgb(0, 140, 74); fill-opacity: 0; stroke-width: 45; stroke-linecap: round; stroke-linejoin: round;"></path>
  <path style="stroke: rgb(0, 140, 74); fill-opacity: 0; stroke-width: 45; stroke-linecap: round; stroke-linejoin: round;" d="M 500 150 L 450 100 H 365 L 315 150 V 350 L 365 400 H 450 L 500 350 V 250 H 400"></path>
  <path style="fill: rgb(216, 216, 216); stroke: rgb(0, 196, 105); fill-opacity: 0; stroke-width: 6; stroke-linejoin: round;" d="M 230 145 L 185 100 H 100 L 50 150 V 200 L 100 250 H 185 L 235 300 V 350 L 185 400 H 100 L 55 355"></path>
  <path style="fill: rgb(216, 216, 216); stroke: rgb(0, 196, 105); fill-opacity: 0; stroke-width: 6; stroke-linejoin: round;" d="M 495 145 L 450 100 H 365 L 315 150 V 350 L 365 400 H 450 L 500 350 V 250 H 407"></path>
  <circle r="15" cx="50" cy="350" stroke="gold" stroke-width="15" style="fill-opacity: 0;"></circle>
  <circle r="15" cx="235" cy="150" stroke="gold" stroke-width="15" style="fill-opacity: 0;"></circle>
  <circle r="15" cx="500" cy="150" stroke="gold" stroke-width="15" style="fill-opacity: 0;"></circle>
  <circle r="15" cx="400" cy="250" stroke="gold" stroke-width="15" style="fill-opacity: 0;"></circle>
</svg>